<?xml version="1.0" encoding="UTF-8" standalone="no"?>
<!-- Created with Inkscape (http://www.inkscape.org/) -->

<svg
   xmlns:dc="http://purl.org/dc/elements/1.1/"
   xmlns:cc="http://creativecommons.org/ns#"
   xmlns:rdf="http://www.w3.org/1999/02/22-rdf-syntax-ns#"
   xmlns:svg="http://www.w3.org/2000/svg"
   xmlns="http://www.w3.org/2000/svg"
   xmlns:sodipodi="http://sodipodi.sourceforge.net/DTD/sodipodi-0.dtd"
   xmlns:inkscape="http://www.inkscape.org/namespaces/inkscape"
   id="svg2"
   version="1.1"
   inkscape:version="0.92.3 (3ce5693, 2018-03-11)"
   xml:space="preserve"
   width="244.07858"
   height="327.04538"
   viewBox="0 0 228.82368 306.60505"
   sodipodi:docname="logo.svg"
   inkscape:export-filename="/home/brian/Dropbox/Berkeley/Presentations/Legacy/physiology/physiology_generic.png"
   inkscape:export-xdpi="300"
   inkscape:export-ydpi="300"><metadata
     id="metadata8"><rdf:RDF><cc:Work
         rdf:about=""><dc:format>image/svg+xml</dc:format><dc:type
           rdf:resource="http://purl.org/dc/dcmitype/StillImage" /><dc:title></dc:title></cc:Work></rdf:RDF></metadata><defs
     id="defs6"><clipPath
       clipPathUnits="userSpaceOnUse"
       id="clipPath16"><path
         d="M 0,1170.331 H 1875.354 V 0 H 0 Z"
         id="path18"
         inkscape:connector-curvature="0" /></clipPath><clipPath
       clipPathUnits="userSpaceOnUse"
       id="clipPath356"><path
         d="M 0,1170.331 H 1875.354 V 0 H 0 Z"
         id="path358"
         inkscape:connector-curvature="0" /></clipPath></defs><sodipodi:namedview
     pagecolor="#ffffff"
     bordercolor="#666666"
     borderopacity="1"
     objecttolerance="10"
     gridtolerance="10"
     guidetolerance="10"
     inkscape:pageopacity="0"
     inkscape:pageshadow="2"
     inkscape:window-width="1829"
     inkscape:window-height="988"
     id="namedview4"
     showgrid="false"
     inkscape:zoom="0.45628758"
     inkscape:cx="-730.94798"
     inkscape:cy="51.920503"
     inkscape:window-x="75"
     inkscape:window-y="34"
     inkscape:window-maximized="0"
     inkscape:current-layer="g10"
     fit-margin-top="0"
     fit-margin-left="0"
     fit-margin-right="0"
     fit-margin-bottom="0" /><g
     id="g10"
     inkscape:groupmode="layer"
     inkscape:label="physiology_figure_v2"
     transform="matrix(1.25,0,0,-1.25,-954.49805,813.28296)"><g
       id="g36"
       transform="translate(897.2744,628.207)"><path
         d="m 0,0 c -0.483,2.333 -1.649,21.043 -5.899,19.793 -0.568,-8.639 -0.937,-1.62 0.774,-19.043 0.668,-6.807 0.958,-41.665 -0.042,-48.54 -5.518,-12.513 -4.415,-30.372 -3.146,-43.542 0.652,-6.758 5.587,-16.378 4.947,-22.703 -0.646,-6.39 -4.529,-12.35 -4.801,-19.754 -0.635,-17.315 16.052,-15.571 18.732,-30.617 1.186,-6.654 2.226,-22.338 3.935,-29.384 1.862,-7.676 -0.842,-10.812 2.667,-17.667 -5.301,-1.449 -17.268,3.581 -20.627,-2.062 -3.942,-6.62 9.724,-5.928 14.627,-7.105 8.591,-2.061 11.996,-2.542 19.615,-0.137 6.649,2.1 20.599,-4.4 17.718,7.304 -8.159,3.36 -17.809,-5.057 -24.46,1.648 -4.087,4.121 -5.714,26.118 -7.207,31.852 -1.802,6.93 -2.872,10.796 -1.275,18.433 1.818,8.696 5.374,10.656 5.275,21.981 -0.046,5.308 0.417,9.149 -2.022,13.48 -2.644,4.692 -3.477,5.016 -6.644,9.23 -1.421,1.89 -6.917,4.375 -6.196,12.458 1.014,11.374 5.732,47.234 -1.804,56.751 C 1,-43.624 0.303,-19.163 0,0"
         style="fill:#f2f2f2;fill-opacity:1;fill-rule:nonzero;stroke:#000000;stroke-width:1;stroke-linecap:butt;stroke-linejoin:miter;stroke-miterlimit:4;stroke-dasharray:none;stroke-opacity:1"
         id="path38"
         inkscape:connector-curvature="0" /></g><g
       id="g40"
       transform="translate(904.3672,496.6279)"><path
         d="M 0,0 C -11.922,3.97 -12.786,-13.059 -2.719,-16.488 1.821,-18.035 7.87,-18.886 7.389,-12.544 7.118,-8.972 2.929,-2.26 0,0"
         style="fill:#8dff4a;fill-opacity:1;fill-rule:nonzero;stroke:#000000;stroke-width:1;stroke-linecap:butt;stroke-linejoin:miter;stroke-miterlimit:4;stroke-dasharray:none;stroke-opacity:1"
         id="path42"
         inkscape:connector-curvature="0" /></g><path
       inkscape:connector-curvature="0"
       id="path46"
       style="fill:#f2f2f2;fill-opacity:1;fill-rule:nonzero;stroke:#000000;stroke-width:1;stroke-linecap:butt;stroke-linejoin:miter;stroke-miterlimit:4;stroke-dasharray:none;stroke-opacity:1"
       d="m 836.5254,628.207 c -0.483,2.333 -1.649,21.043 -5.899,19.793 -0.568,-8.639 -0.937,-1.62 0.774,-19.043 0.668,-6.807 0.958,-41.665 -0.042,-48.54 -5.518,-12.513 -4.415,-30.372 -3.146,-43.542 0.652,-6.758 5.587,-16.378 4.947,-22.703 -0.646,-6.39 -4.529,-12.35 -4.801,-19.754 -0.635,-17.315 16.052,-15.571 18.732,-30.617 1.186,-6.654 2.226,-22.338 3.935,-29.384 1.862,-7.676 -0.842,-10.812 2.667,-17.667 -5.301,-1.449 -17.268,3.581 -20.627,-2.062 -4.275,-7.179 7.389,-5.368 14.627,-7.105 8.591,-2.061 11.996,-2.542 19.615,-0.137 6.649,2.1 20.599,-4.4 17.718,7.304 -8.159,3.36 -17.809,-5.057 -24.46,1.648 -4.087,4.121 -5.714,26.118 -7.207,31.852 -1.802,6.93 -2.872,10.796 -1.275,18.433 1.818,8.696 5.374,10.656 5.275,21.981 -0.046,5.308 0.417,9.149 -2.022,13.48 -2.644,4.692 -3.477,5.016 -6.644,9.23 -1.421,1.89 -6.917,4.375 -6.196,12.458 1.014,11.374 5.732,47.234 -1.804,56.751 -3.167,4 -3.864,28.461 -4.167,47.624" /><g
       id="g48"
       transform="translate(843.6182,496.6279)"><path
         d="M 0,0 C -11.922,3.97 -12.786,-13.059 -2.719,-16.488 1.821,-18.035 7.87,-18.886 7.389,-12.544 7.118,-8.972 2.929,-2.26 0,0"
         style="fill:#e92e00;fill-opacity:1;fill-rule:nonzero;stroke:#000000;stroke-width:1;stroke-linecap:butt;stroke-linejoin:miter;stroke-miterlimit:4;stroke-dasharray:none;stroke-opacity:1"
         id="path50"
         inkscape:connector-curvature="0" /></g><g
       id="g68"
       transform="translate(773.4521,630.2793)"><path
         d="m 0,0 c -0.483,2.333 -1.649,21.043 -5.899,19.793 -0.568,-8.639 -0.937,-1.62 0.774,-19.043 0.668,-6.807 0.958,-41.665 -0.042,-48.54 -5.518,-12.513 -4.415,-30.372 -3.146,-43.542 0.652,-6.758 5.587,-16.378 4.947,-22.703 -0.646,-6.39 -4.529,-12.35 -4.801,-19.754 -0.635,-17.315 16.052,-15.571 18.732,-30.617 1.186,-6.654 2.226,-22.338 3.935,-29.384 1.862,-7.676 -0.842,-10.812 2.667,-17.667 -5.301,-1.449 -17.268,3.581 -20.627,-2.062 -3.942,-6.62 9.724,-5.928 14.627,-7.105 8.591,-2.061 11.996,-2.542 19.615,-0.137 6.649,2.1 20.599,-4.4 17.718,7.304 -8.159,3.36 -17.809,-5.057 -24.46,1.648 -4.087,4.121 -5.714,26.118 -7.207,31.852 -1.802,6.93 -2.872,10.796 -1.275,18.433 1.818,8.696 5.374,10.656 5.275,21.981 -0.046,5.308 0.417,9.149 -2.022,13.48 -2.644,4.692 -3.477,5.016 -6.644,9.23 -1.421,1.89 -6.917,4.375 -6.196,12.458 1.014,11.374 5.732,47.234 -1.804,56.751 C 1,-43.624 0.303,-19.163 0,0"
         style="fill:#f2f2f2;fill-opacity:1;fill-rule:nonzero;stroke:#000000;stroke-width:1;stroke-linecap:butt;stroke-linejoin:miter;stroke-miterlimit:4;stroke-dasharray:none;stroke-opacity:1"
         id="path70"
         inkscape:connector-curvature="0" /></g><g
       id="g88"
       transform="translate(778.38591,501.02574)"><path
         d="m 0,0 c -11.921,3.97 -12.785,-13.06 -2.719,-16.489 4.541,-1.547 10.59,-2.398 10.108,3.945 C 7.119,-8.973 2.929,-2.261 0,0"
         style="fill:#4a7dff;fill-opacity:1;fill-rule:nonzero;stroke:#000000;stroke-width:1;stroke-linecap:butt;stroke-linejoin:miter;stroke-miterlimit:4;stroke-dasharray:none;stroke-opacity:1"
         id="path90"
         inkscape:connector-curvature="0" /></g></g></svg>