<?xml version="1.0" encoding="UTF-8" standalone="no"?>
<!-- Created with Inkscape (http://www.inkscape.org/) -->

<svg
   xmlns:dc="http://purl.org/dc/elements/1.1/"
   xmlns:cc="http://creativecommons.org/ns#"
   xmlns:rdf="http://www.w3.org/1999/02/22-rdf-syntax-ns#"
   xmlns:svg="http://www.w3.org/2000/svg"
   xmlns="http://www.w3.org/2000/svg"
   xmlns:sodipodi="http://sodipodi.sourceforge.net/DTD/sodipodi-0.dtd"
   xmlns:inkscape="http://www.inkscape.org/namespaces/inkscape"
   id="svg2"
   version="1.1"
   inkscape:version="0.92.2 (30a58d1, 2017-08-07)"
   xml:space="preserve"
   width="490.49237"
   height="842.84473"
   viewBox="0 0 459.83662 790.16695"
   sodipodi:docname="physiology_generic.svg"
   inkscape:export-filename="/home/brian/Dropbox/Berkeley/Presentations/Legacy/physiology/physiology_generic.png"
   inkscape:export-xdpi="300"
   inkscape:export-ydpi="300"><metadata
     id="metadata8"><rdf:RDF><cc:Work
         rdf:about=""><dc:format>image/svg+xml</dc:format><dc:type
           rdf:resource="http://purl.org/dc/dcmitype/StillImage" /><dc:title /></cc:Work></rdf:RDF></metadata><defs
     id="defs6"><clipPath
       clipPathUnits="userSpaceOnUse"
       id="clipPath16"><path
         d="M 0,1170.331 H 1875.354 V 0 H 0 Z"
         id="path18"
         inkscape:connector-curvature="0" /></clipPath><clipPath
       clipPathUnits="userSpaceOnUse"
       id="clipPath356"><path
         d="M 0,1170.331 H 1875.354 V 0 H 0 Z"
         id="path358"
         inkscape:connector-curvature="0" /></clipPath></defs><sodipodi:namedview
     pagecolor="#ffffff"
     bordercolor="#666666"
     borderopacity="1"
     objecttolerance="10"
     gridtolerance="10"
     guidetolerance="10"
     inkscape:pageopacity="0"
     inkscape:pageshadow="2"
     inkscape:window-width="1829"
     inkscape:window-height="988"
     id="namedview4"
     showgrid="false"
     inkscape:zoom="0.45628758"
     inkscape:cx="-157.79592"
     inkscape:cy="562.71986"
     inkscape:window-x="75"
     inkscape:window-y="34"
     inkscape:window-maximized="0"
     inkscape:current-layer="g10"
     fit-margin-top="5"
     fit-margin-left="5"
     fit-margin-right="5"
     fit-margin-bottom="5" /><g
     id="g10"
     inkscape:groupmode="layer"
     inkscape:label="physiology_figure_v2"
     transform="matrix(1.25,0,0,-1.25,-869.18555,817.97046)"><g
       id="g36"
       transform="translate(897.2744,628.207)"><path
         d="m 0,0 c -0.483,2.333 -1.649,21.043 -5.899,19.793 -0.568,-8.639 -0.937,-1.62 0.774,-19.043 0.668,-6.807 0.958,-41.665 -0.042,-48.54 -5.518,-12.513 -4.415,-30.372 -3.146,-43.542 0.652,-6.758 5.587,-16.378 4.947,-22.703 -0.646,-6.39 -4.529,-12.35 -4.801,-19.754 -0.635,-17.315 16.052,-15.571 18.732,-30.617 1.186,-6.654 2.226,-22.338 3.935,-29.384 1.862,-7.676 -0.842,-10.812 2.667,-17.667 -5.301,-1.449 -17.268,3.581 -20.627,-2.062 -3.942,-6.62 9.724,-5.928 14.627,-7.105 8.591,-2.061 11.996,-2.542 19.615,-0.137 6.649,2.1 20.599,-4.4 17.718,7.304 -8.159,3.36 -17.809,-5.057 -24.46,1.648 -4.087,4.121 -5.714,26.118 -7.207,31.852 -1.802,6.93 -2.872,10.796 -1.275,18.433 1.818,8.696 5.374,10.656 5.275,21.981 -0.046,5.308 0.417,9.149 -2.022,13.48 -2.644,4.692 -3.477,5.016 -6.644,9.23 -1.421,1.89 -6.917,4.375 -6.196,12.458 1.014,11.374 5.732,47.234 -1.804,56.751 C 1,-43.624 0.303,-19.163 0,0"
         style="fill:#f2f2f2;fill-opacity:1;fill-rule:nonzero;stroke:#000000;stroke-width:1;stroke-linecap:butt;stroke-linejoin:miter;stroke-miterlimit:4;stroke-dasharray:none;stroke-opacity:1"
         id="path38"
         inkscape:connector-curvature="0" /></g><g
       id="g40"
       transform="translate(904.3672,496.6279)"><path
         d="M 0,0 C -11.922,3.97 -12.786,-13.059 -2.719,-16.488 1.821,-18.035 7.87,-18.886 7.389,-12.544 7.118,-8.972 2.929,-2.26 0,0"
         style="fill:#8dff4a;fill-opacity:1;fill-rule:nonzero;stroke:#000000;stroke-width:1;stroke-linecap:butt;stroke-linejoin:miter;stroke-miterlimit:4;stroke-dasharray:none;stroke-opacity:1"
         id="path42"
         inkscape:connector-curvature="0" /></g><path
       inkscape:connector-curvature="0"
       id="path46"
       style="fill:#f2f2f2;fill-opacity:1;fill-rule:nonzero;stroke:#000000;stroke-width:1;stroke-linecap:butt;stroke-linejoin:miter;stroke-miterlimit:4;stroke-dasharray:none;stroke-opacity:1"
       d="m 836.5254,628.207 c -0.483,2.333 -1.649,21.043 -5.899,19.793 -0.568,-8.639 -0.937,-1.62 0.774,-19.043 0.668,-6.807 0.958,-41.665 -0.042,-48.54 -5.518,-12.513 -4.415,-30.372 -3.146,-43.542 0.652,-6.758 5.587,-16.378 4.947,-22.703 -0.646,-6.39 -4.529,-12.35 -4.801,-19.754 -0.635,-17.315 16.052,-15.571 18.732,-30.617 1.186,-6.654 2.226,-22.338 3.935,-29.384 1.862,-7.676 -0.842,-10.812 2.667,-17.667 -5.301,-1.449 -17.268,3.581 -20.627,-2.062 -4.275,-7.179 7.389,-5.368 14.627,-7.105 8.591,-2.061 11.996,-2.542 19.615,-0.137 6.649,2.1 20.599,-4.4 17.718,7.304 -8.159,3.36 -17.809,-5.057 -24.46,1.648 -4.087,4.121 -5.714,26.118 -7.207,31.852 -1.802,6.93 -2.872,10.796 -1.275,18.433 1.818,8.696 5.374,10.656 5.275,21.981 -0.046,5.308 0.417,9.149 -2.022,13.48 -2.644,4.692 -3.477,5.016 -6.644,9.23 -1.421,1.89 -6.917,4.375 -6.196,12.458 1.014,11.374 5.732,47.234 -1.804,56.751 -3.167,4 -3.864,28.461 -4.167,47.624" /><g
       id="g48"
       transform="translate(843.6182,496.6279)"><path
         d="M 0,0 C -11.922,3.97 -12.786,-13.059 -2.719,-16.488 1.821,-18.035 7.87,-18.886 7.389,-12.544 7.118,-8.972 2.929,-2.26 0,0"
         style="fill:#e92e00;fill-opacity:1;fill-rule:nonzero;stroke:#000000;stroke-width:1;stroke-linecap:butt;stroke-linejoin:miter;stroke-miterlimit:4;stroke-dasharray:none;stroke-opacity:1"
         id="path50"
         inkscape:connector-curvature="0" /></g><g
       id="g52"
       transform="translate(772.4741,628.207)"><path
         d="m 0,0 c -0.483,2.333 -1.649,21.043 -5.899,19.793 -0.568,-8.639 -0.937,-1.62 0.774,-19.043 0.668,-6.807 0.958,-41.665 -0.042,-48.54 -5.518,-12.513 -4.415,-30.372 -3.146,-43.542 0.652,-6.758 5.587,-16.378 4.947,-22.703 -0.646,-6.39 -4.529,-12.35 -4.801,-19.754 -0.635,-17.315 16.052,-15.571 18.732,-30.617 1.186,-6.654 2.226,-22.338 3.935,-29.384 1.862,-7.676 -0.842,-10.812 2.667,-17.667 -5.301,-1.449 -17.268,3.581 -20.627,-2.062 -3.942,-6.62 9.724,-5.928 14.627,-7.105 8.591,-2.061 11.996,-2.542 19.615,-0.137 6.649,2.1 20.599,-4.4 17.718,7.304 -8.159,3.36 -17.809,-5.057 -24.46,1.648 -4.087,4.121 -5.714,26.118 -7.207,31.852 -1.802,6.93 -2.872,10.796 -1.275,18.433 1.818,8.696 5.374,10.656 5.275,21.981 -0.046,5.308 0.417,9.149 -2.022,13.48 -2.644,4.692 -3.477,5.016 -6.644,9.23 -1.421,1.89 -6.917,4.375 -6.196,12.458 1.014,11.374 5.732,47.234 -1.804,56.751 C 1,-43.624 0.303,-19.163 0,0"
         style="fill:#f2f2f2;fill-opacity:1;fill-rule:nonzero;stroke:#000000;stroke-width:1;stroke-linecap:butt;stroke-linejoin:miter;stroke-miterlimit:4;stroke-dasharray:none;stroke-opacity:1"
         id="path54"
         inkscape:connector-curvature="0" /></g><g
       id="g56"
       transform="translate(779.5669,496.6279)"><path
         d="M 0,0 C -11.922,3.97 -12.786,-13.059 -2.719,-16.488 1.821,-18.035 7.87,-18.886 7.389,-12.544 7.118,-8.972 2.929,-2.26 0,0"
         style="fill:#e92e00;fill-opacity:1;fill-rule:nonzero;stroke:#000000;stroke-width:1;stroke-linecap:butt;stroke-linejoin:miter;stroke-miterlimit:4;stroke-dasharray:none;stroke-opacity:1"
         id="path58"
         inkscape:connector-curvature="0" /></g><g
       id="g68"
       transform="translate(708.9521,630.2793)"><path
         d="m 0,0 c -0.483,2.333 -1.649,21.043 -5.899,19.793 -0.568,-8.639 -0.937,-1.62 0.774,-19.043 0.668,-6.807 0.958,-41.665 -0.042,-48.54 -5.518,-12.513 -4.415,-30.372 -3.146,-43.542 0.652,-6.758 5.587,-16.378 4.947,-22.703 -0.646,-6.39 -4.529,-12.35 -4.801,-19.754 -0.635,-17.315 16.052,-15.571 18.732,-30.617 1.186,-6.654 2.226,-22.338 3.935,-29.384 1.862,-7.676 -0.842,-10.812 2.667,-17.667 -5.301,-1.449 -17.268,3.581 -20.627,-2.062 -3.942,-6.62 9.724,-5.928 14.627,-7.105 8.591,-2.061 11.996,-2.542 19.615,-0.137 6.649,2.1 20.599,-4.4 17.718,7.304 -8.159,3.36 -17.809,-5.057 -24.46,1.648 -4.087,4.121 -5.714,26.118 -7.207,31.852 -1.802,6.93 -2.872,10.796 -1.275,18.433 1.818,8.696 5.374,10.656 5.275,21.981 -0.046,5.308 0.417,9.149 -2.022,13.48 -2.644,4.692 -3.477,5.016 -6.644,9.23 -1.421,1.89 -6.917,4.375 -6.196,12.458 1.014,11.374 5.732,47.234 -1.804,56.751 C 1,-43.624 0.303,-19.163 0,0"
         style="fill:#f2f2f2;fill-opacity:1;fill-rule:nonzero;stroke:#000000;stroke-width:1;stroke-linecap:butt;stroke-linejoin:miter;stroke-miterlimit:4;stroke-dasharray:none;stroke-opacity:1"
         id="path70"
         inkscape:connector-curvature="0" /></g><g
       id="g76"
       transform="translate(967.0762,628.207)"><path
         d="m 0,0 c -0.483,2.333 -1.649,21.043 -5.899,19.793 -0.568,-8.639 -0.937,-1.62 0.774,-19.043 0.668,-6.807 0.958,-41.665 -0.042,-48.54 -5.518,-12.513 -4.415,-30.372 -3.146,-43.542 0.652,-6.758 5.587,-16.378 4.947,-22.703 -0.646,-6.39 -4.529,-12.35 -4.801,-19.754 -0.635,-17.315 16.052,-15.571 18.732,-30.617 1.186,-6.654 2.226,-22.338 3.935,-29.384 1.862,-7.676 -0.843,-10.812 2.667,-17.667 -5.301,-1.449 -17.268,3.581 -20.627,-2.062 -3.942,-6.62 9.724,-5.928 14.627,-7.105 8.592,-2.061 11.996,-2.542 19.615,-0.137 6.649,2.1 20.6,-4.4 17.718,7.304 -8.159,3.36 -17.81,-5.057 -24.46,1.648 -4.088,4.121 -5.715,26.118 -7.207,31.852 -1.803,6.93 -2.872,10.796 -1.275,18.433 1.818,8.696 5.375,10.656 5.275,21.981 -0.046,5.308 0.417,9.149 -2.022,13.48 -2.644,4.692 -3.477,5.016 -6.644,9.23 -1.422,1.89 -6.917,4.375 -6.196,12.458 1.014,11.374 5.731,47.234 -1.804,56.751 C 1,-43.624 0.303,-19.163 0,0"
         style="fill:#f2f2f2;fill-opacity:1;fill-rule:nonzero;stroke:#000000;stroke-width:1;stroke-linecap:butt;stroke-linejoin:miter;stroke-miterlimit:4;stroke-dasharray:none;stroke-opacity:1"
         id="path78"
         inkscape:connector-curvature="0" /></g><g
       id="g80"
       transform="translate(974.168,496.6279)"><path
         d="M 0,0 C -11.921,3.97 -12.785,-13.059 -2.719,-16.488 1.823,-18.035 7.871,-18.886 7.39,-12.544 7.119,-8.972 2.93,-2.26 0,0"
         style="fill:#8dff4a;fill-opacity:1;fill-rule:nonzero;stroke:#000000;stroke-width:1;stroke-linecap:butt;stroke-linejoin:miter;stroke-miterlimit:4;stroke-dasharray:none;stroke-opacity:1"
         id="path82"
         inkscape:connector-curvature="0" /></g><g
       id="g88"
       transform="translate(713.88591,501.02574)"><path
         d="m 0,0 c -11.921,3.97 -12.785,-13.06 -2.719,-16.489 4.541,-1.547 10.59,-2.398 10.108,3.945 C 7.119,-8.973 2.929,-2.261 0,0"
         style="fill:#4a7dff;fill-opacity:1;fill-rule:nonzero;stroke:#000000;stroke-width:1;stroke-linecap:butt;stroke-linejoin:miter;stroke-miterlimit:4;stroke-dasharray:none;stroke-opacity:1"
         id="path90"
         inkscape:connector-curvature="0" /></g><g
       id="g100"
       transform="translate(773.7383,401.6289)"><path
         d="m 0,0 c -0.639,-13.356 7.662,-11.795 16.458,-12.712 5.094,-0.532 4.963,-25.825 3.745,-25.168 -1.841,-0.77 -12.167,-2.833 -14.333,-6.083 -4,-8.25 -3.584,-15.667 0.166,-24.084 1.76,-3.95 4.904,-2.651 8.723,-5.953 5.951,-5.149 5.519,-6.34 5.777,-14.253 0.747,-22.919 -8.393,-52.596 -8.911,-53.626 -1.357,-6.562 1.484,-19.065 3.167,-26.25 2.087,-8.913 5.75,-29.666 3.402,-33.767 -4.236,0.767 -30.354,0.234 -28.34,-14.25 2.08,0.026 4.817,0.899 6.511,2.067 0.535,11.523 13.921,-3.096 18.88,0.324 4.666,7.542 19.719,8.424 18.076,0.819 -0.133,-0.384 4.855,-0.251 4.438,-0.194 11.777,15.417 19.027,-5.542 21.069,-3.958 5.042,0.875 1.031,12.155 -8.286,14.459 -7.75,1.917 -22.5,0.584 -25.906,1.507 -1.594,1.41 -4.478,28.859 -7.323,43.095 -1.435,7.187 -2.496,13.025 -1.105,19.732 0.917,4.416 4.952,18.543 5.917,23.25 2.546,12.421 3.183,16.905 3.144,24.75 -0.026,5.023 -0.424,10.065 3.017,16.123 4.16,7.324 5.103,6.172 6.167,8.709 2.036,4.854 4.653,13.528 1.667,18.5 -2.335,3.884 -6.37,7.455 -10.852,9.583 -0.139,5.826 -1.81,23.251 -0.577,23.979 4.836,0.245 8.254,0.017 13.095,0.242 0.238,5.339 3.771,17.263 -3.5,16.773 -2.742,-6.506 3.336,-11.566 -5.92,-13.035 -9.455,-1.501 -7.705,5.624 -8.047,10.035 -2.752,1.269 -2.82,0.33 -5.635,-1.011 1.227,-3.025 0.727,-5.275 -0.005,-7.777 C 4.536,-7.047 4.187,-9.256 4.687,0.684 4.708,0.954 0.628,1.599 0,0"
         style="fill:#808080;fill-opacity:1;fill-rule:nonzero;stroke:#000000;stroke-width:1;stroke-linecap:butt;stroke-linejoin:miter;stroke-miterlimit:4;stroke-dasharray:none;stroke-opacity:1"
         id="path102"
         inkscape:connector-curvature="0" /></g><path
       inkscape:connector-curvature="0"
       id="path106"
       style="fill:none;stroke:#000000;stroke-width:1;stroke-linecap:butt;stroke-linejoin:miter;stroke-miterlimit:4;stroke-dasharray:none;stroke-opacity:1"
       d="m 792.5244,353.082 c -1.588,1.972 -5.106,0.331 -6.723,-0.687 -2.132,-1.344 -2.549,-2.381 -2.79,-4.843 -0.676,-6.916 3.024,-8.494 9.514,-8.72 4.448,-0.155 8.668,2.729 7.249,7.746 -1.135,4.011 -6.063,4.674 -8.5,7.754" /><g
       id="g108"
       transform="translate(911.8838,234.332)"><path
         d="m 0,0 c -1.317,4.187 -3.789,6.096 -8.062,7.013 -3.551,0.762 -6.329,0.439 -9.638,0.096 -1.847,-0.191 -9.279,-0.494 -11.243,0.391 -3.745,1.687 -5.089,13.937 -5.828,17.668 -1.806,9.127 -1.821,10.266 -3.25,19.5 -0.944,6.106 -2.924,16.272 -4.666,22.083 -1.109,3.701 -0.153,5.29 -1.172,10.332 -0.669,3.458 12.583,14.667 -3.834,25.75 -3.72,2.512 -9.202,-2.747 -13.75,1.658 -1.041,1.009 -0.022,-0.491 -0.833,4.092 -1.364,7.711 4.5,18.762 4.5,26.75 0,6.091 0.513,17.434 3.754,22.58 4.539,-0.655 7.84,-1.9 12.412,0.101 2.841,1.244 4.635,1.304 4.525,4.984 -0.027,0.903 -2.053,5.058 -2.863,5.54 -4.517,2.685 -5.996,-5.693 -11.856,-5.536 -5.715,0.153 1.382,6.842 -9.85,5.015 -1.29,-0.017 -0.321,-4.02 -6.8,-3.461 l -2.302,0.748 -4.845,1.65 c -0.336,0.918 -0.202,2.121 -0.773,3.034 -0.896,-0.049 -5.183,0.538 -5.233,-0.989 L -81.609,169 c 0,-0.002 10e-4,-0.004 0.002,-0.007 -0.002,-0.053 -0.012,-0.102 -0.002,-0.16 l 0.048,-0.016 c 1.617,-6.061 1.54,-6.823 9.075,-6.817 3.252,0.003 10.513,0.159 12.275,-2.479 2.679,-4.009 -0.23,-9.722 -1.148,-12.688 -1.287,-4.155 -0.334,-12.916 -1.369,-17.17 -2.142,-8.807 -1.048,-12.21 -4.048,-19.913 -1.291,-3.315 -0.994,-6.657 -3.666,-9.583 -3.604,-3.947 -4.959,-3.047 -5.25,-9.75 -0.693,-15.944 26.083,-10.416 26.996,-14.493 -0.179,-4.349 12.785,-53.499 12.011,-69.848 -8.19,-0.436 -19.569,-2.621 -17.849,-13.489 4.441,-2.396 5.136,2.344 7.913,4.425 3.639,2.725 9.986,2.156 14.425,1.901 1.517,-2.349 1.821,-5.011 1.662,-7.837 2.331,-0.319 4.819,-0.157 6.838,1.011 0.416,2.723 -0.232,5.422 -0.836,7.839 4.417,0.23 8.949,0.115 13.397,0.074 2.09,-0.019 4.891,0.624 6.424,-1.139 1.341,-1.541 -0.21,-3.953 0.981,-5.47 C 0.263,-11.701 0.879,-2.793 0,0"
         style="fill:#808080;fill-opacity:1;fill-rule:nonzero;stroke:none"
         id="path110"
         inkscape:connector-curvature="0" /></g><g
       id="g112"
       transform="translate(911.8838,234.332)"><path
         d="m 0,0 c -1.317,4.187 -3.789,6.096 -8.062,7.013 -3.551,0.762 -6.329,0.439 -9.638,0.096 -1.847,-0.191 -9.279,-0.494 -11.243,0.391 -3.745,1.687 -5.089,13.937 -5.828,17.668 -1.806,9.127 -1.821,10.266 -3.25,19.5 -0.944,6.106 -2.924,16.272 -4.666,22.083 -1.109,3.701 -0.153,5.29 -1.172,10.332 -0.669,3.458 12.583,14.667 -3.834,25.75 -3.72,2.512 -9.202,-2.747 -13.75,1.658 -1.041,1.009 -0.022,-0.491 -0.833,4.092 -1.364,7.711 4.5,18.762 4.5,26.75 0,6.091 0.513,17.434 3.754,22.58 4.539,-0.655 7.84,-1.9 12.412,0.101 2.841,1.244 4.635,1.304 4.525,4.984 -0.027,0.903 -2.053,5.058 -2.863,5.54 -4.517,2.685 -5.996,-5.693 -11.856,-5.536 -5.715,0.153 1.382,6.842 -9.85,5.015 -1.29,-0.017 -0.321,-4.02 -6.8,-3.461 l -2.302,0.748 -4.845,1.65 c -0.336,0.918 -0.202,2.121 -0.773,3.034 -0.896,-0.049 -5.183,0.538 -5.233,-0.989 L -81.609,169 c 0,-0.002 10e-4,-0.004 0.002,-0.007 -0.002,-0.053 -0.012,-0.102 -0.002,-0.16 l 0.048,-0.016 c 1.617,-6.061 1.54,-6.823 9.075,-6.817 3.252,0.003 10.513,0.159 12.275,-2.479 2.679,-4.009 -0.23,-9.722 -1.148,-12.688 -1.287,-4.155 -0.334,-12.916 -1.369,-17.17 -2.142,-8.807 -1.048,-12.21 -4.048,-19.913 -1.291,-3.315 -0.994,-6.657 -3.666,-9.583 -3.604,-3.947 -4.959,-3.047 -5.25,-9.75 -0.693,-15.944 26.083,-10.416 26.996,-14.493 -0.179,-4.349 12.785,-53.499 12.011,-69.848 -8.19,-0.436 -19.569,-2.621 -17.849,-13.489 4.441,-2.396 5.136,2.344 7.913,4.425 3.639,2.725 9.986,2.156 14.425,1.901 1.517,-2.349 1.821,-5.011 1.662,-7.837 2.331,-0.319 4.819,-0.157 6.838,1.011 0.416,2.723 -0.232,5.422 -0.836,7.839 4.417,0.23 8.949,0.115 13.397,0.074 2.09,-0.019 4.891,0.624 6.424,-1.139 1.341,-1.541 -0.21,-3.953 0.981,-5.47 C 0.263,-11.701 0.879,-2.793 0,0 Z"
         style="fill:none;stroke:#000000;stroke-width:1;stroke-linecap:butt;stroke-linejoin:miter;stroke-miterlimit:4;stroke-dasharray:none;stroke-opacity:1"
         id="path114"
         inkscape:connector-curvature="0" /></g><path
       inkscape:connector-curvature="0"
       id="path118"
       style="fill:none;stroke:#000000;stroke-width:1;stroke-linecap:butt;stroke-linejoin:miter;stroke-miterlimit:4;stroke-dasharray:none;stroke-opacity:1"
       d="m 862.3159,326.707 c 0,0 -3.217,2.416 -3.292,2.667 -2.016,1.414 -8.233,0.741 -9.625,-2.709 -1.12,-2.779 1.544,-7.249 3.5,-8.875 1.902,-1.581 10.363,-0.224 11.618,2.355 1.58,3.246 -0.582,4.478 -2.201,6.562" /><g
       id="g120"
       transform="translate(772.1968,183.4912)"><path
         d="m 0,0 c 0,-4.905 0.069,-12.989 3.65,-16.592 2.963,-2.98 10.488,1.705 14.267,1.705 6.739,-10e-4 8.535,-4.387 9.083,-11.739 0.527,-7.078 -0.308,-14.296 0,-21.392 0.197,-4.532 2.934,-17.695 -1.652,-19.848 -3.248,-1.525 -2.765,0.107 -5.43,-2.781 -1.393,-1.51 -1.362,-4.207 -2.009,-6.206 -1.696,-5.238 -3.992,-10.665 -2.517,-15.835 5.025,-6.378 16.199,-4.731 14.192,-13.335 -1.003,-4.305 -4.154,-7.168 -4.584,-11.629 -0.4,-4.151 -0.284,-8.224 -0.351,-12.483 0.039,0.179 -1.256,-13.865 4.166,-18.555 7.453,-6.447 19.557,-8.22 28.876,-8.301 11.101,-0.095 22.394,0.73 33.404,2.087 14.795,1.822 30.321,1.161 45.23,1.161 17.955,0 36.124,-1.628 53.958,-0.667 2.196,-0.077 1.071,4.998 -1.179,5.743 -4.187,0.744 -19.161,-1.267 -22.125,-1.421 -6.947,-0.363 -18.739,-0.23 -25.812,-0.609 -16.037,-0.86 -21.69,1.376 -37.667,1.376 -15.645,0 -28.318,-2.115 -37.417,-3.068 -9.095,-0.953 -24.25,0.722 -30.693,4.122 -3.89,1.652 -6.781,7.003 -6.89,9.772 -0.941,3.938 -0.614,15.596 -0.25,19.76 0.42,4.808 2.205,6.092 3.667,10.285 1.207,3.464 1.123,5.891 1.916,8.932 5.167,4.782 11.366,8.201 10.917,18.045 -0.119,2.602 1.083,9.293 -2.882,11.818 -1.569,0.999 -4.223,0.655 -5.868,1.084 -1.299,0.339 -2.725,1.156 -3.942,1.868 -0.624,11.554 -1.921,34.806 -2.449,46.402 -0.203,4.46 -1.472,3.503 2.058,7.038 3.654,3.661 17.543,4.78 18.617,6.866 0.682,1.324 1.132,3.672 1.308,5.033 C 52.08,2.4 52,5.39 48.418,6.449 47.288,3.465 47.408,-0.792 45.741,-3.609 44.369,-5.926 39.082,-6.722 36.318,-6.153 32.575,-5.381 32.115,-2.845 32,0.722 31.827,6.088 30.308,7.223 24.716,6.441 23.693,4.623 22.866,3.464 22.992,1.083 23.103,-0.987 24.898,-2.816 24.34,-5.042 22.965,-10.525 14.464,-9.071 10.424,-9.023 3.315,-8.937 7.736,-4.901 5.749,0.08 4.036,4.371 1.928,3.179 0,0"
         style="fill:#b2b2b2;fill-opacity:1;fill-rule:nonzero;stroke:#000000;stroke-width:1;stroke-linecap:butt;stroke-linejoin:miter;stroke-miterlimit:4;stroke-dasharray:none;stroke-opacity:1"
         id="path122"
         inkscape:connector-curvature="0" /></g><g
       id="g132"
       transform="translate(807.8633,108.498)"><path
         d="m 0,0 c -1.255,4.126 -7.439,5.746 -10.193,1.957 -1.404,-1.932 -2.858,-8.746 -1.745,-10.9 1.366,-2.649 8.431,-4.026 10.444,-2.043 C 1.059,-8.472 0,-2.943 0,0.5"
         style="fill:none;stroke:#000000;stroke-width:1;stroke-linecap:butt;stroke-linejoin:miter;stroke-miterlimit:4;stroke-dasharray:none;stroke-opacity:1"
         id="path134"
         inkscape:connector-curvature="0" /></g><g
       id="g140"
       transform="translate(867.4966,225.1099)"><path
         d="m 0,0 c 0,-4.53 0.173,-9.532 3.755,-12.86 2.962,-2.752 8.833,-0.124 12.612,-0.125 6.739,-0.001 10.084,-4.817 10.633,-11.607 0.527,-6.538 -0.309,-13.205 0,-19.758 0.196,-4.187 2.934,-16.344 -1.652,-18.333 -3.248,-1.408 -2.765,0.1 -5.43,-2.568 -1.394,-1.395 -1.363,-3.886 -2.01,-5.732 -1.695,-4.838 -3.992,-9.85 -2.517,-14.625 5.025,-5.892 16.2,-4.37 14.193,-12.318 -1.004,-3.975 -4.154,-6.619 -4.584,-10.741 -0.4,-3.833 -0.285,-7.595 -0.352,-11.529 0.039,0.166 -1.255,-12.806 4.166,-17.137 7.454,-5.955 19.557,-7.593 28.877,-7.667 11.101,-0.088 22.394,0.674 33.403,1.927 14.795,1.683 30.321,1.073 45.23,1.073 17.955,0 36.125,-1.504 53.959,-0.616 2.195,-0.071 1.07,4.616 -1.18,5.304 -4.187,0.687 -19.161,-1.17 -22.125,-1.313 -6.947,-0.334 -18.739,-0.212 -25.812,-0.562 -16.037,-0.794 -21.689,1.27 -37.666,1.27 -15.646,0 -28.318,-1.952 -37.417,-2.833 -9.096,-0.88 -24.25,0.667 -30.693,3.807 -3.89,1.526 -6.781,6.468 -6.89,9.026 -0.941,3.637 -0.614,14.404 -0.25,18.25 0.42,4.441 2.205,5.627 3.666,9.5 1.207,3.2 1.123,5.441 1.917,8.25 5.167,4.417 11.366,7.574 10.917,16.667 -0.119,2.403 1.083,8.583 -2.883,10.916 -1.568,0.922 -4.222,0.605 -5.867,1.001 -1.3,0.312 -2.725,1.067 -3.942,1.725 -0.624,10.671 -1.533,20.896 -2.06,31.607 -0.203,4.119 -1.036,14.501 2.494,17.766 3.654,3.381 5.3,1.449 6.375,3.375 0.682,1.223 0.489,3.703 -0.313,4.688 -2.75,3.375 1.426,6.788 -0.589,9.85 C 37.929,7.177 34.785,7.492 33.117,4.89 31.746,2.75 35.067,-6.761 32.304,-6.235 28.56,-5.522 27.107,-2.154 26.992,1.14 26.818,6.097 29.958,7.736 24.367,7.015 23.345,5.335 22.865,3.199 22.992,1 23.102,-0.911 24.925,-4.303 24.367,-6.36 22.992,-11.424 12.656,-9.53 8.617,-9.485 1.507,-9.406 8.042,0.539 6.054,5.14 4.341,9.104 1.928,2.937 0,0"
         style="fill:#b5b5b5;fill-opacity:1;fill-rule:nonzero;stroke:#000000;stroke-width:1;stroke-linecap:butt;stroke-linejoin:miter;stroke-miterlimit:4;stroke-dasharray:none;stroke-opacity:1"
         id="path142"
         inkscape:connector-curvature="0" /></g><g
       id="g144"
       transform="translate(903.1626,151.6099)"><path
         d="m 0,0 c -1.256,4.126 -7.439,5.746 -10.193,1.957 -1.405,-1.932 -2.858,-8.746 -1.745,-10.9 1.366,-2.649 8.43,-4.026 10.444,-2.043 C 1.059,-8.472 0,-2.943 0,0.5"
         style="fill:none;stroke:#000000;stroke-width:1;stroke-linecap:butt;stroke-linejoin:miter;stroke-miterlimit:4;stroke-dasharray:none;stroke-opacity:1"
         id="path146"
         inkscape:connector-curvature="0" /></g></g></svg>